<?xml version="1.0" encoding="UTF-8" standalone="no"?>
<svg
   version="1.1"
   id="Layer_1"
   x="0px"
   y="0px"
   width="100%"
   viewBox="0 0 237 237"
   enable-background="new 0 0 237 237"
   xml:space="preserve"
   sodipodi:docname="aid_light.svg"
   inkscape:version="1.3.2 (091e20e, 2023-11-25)"
   xmlns:inkscape="http://www.inkscape.org/namespaces/inkscape"
   xmlns:sodipodi="http://sodipodi.sourceforge.net/DTD/sodipodi-0.dtd"
   xmlns="http://www.w3.org/2000/svg"
   xmlns:svg="http://www.w3.org/2000/svg"><defs
   id="defs2" /><sodipodi:namedview
   id="namedview2"
   pagecolor="#ffffff"
   bordercolor="#000000"
   borderopacity="0.25"
   inkscape:showpageshadow="2"
   inkscape:pageopacity="0.0"
   inkscape:pagecheckerboard="true"
   inkscape:deskcolor="#d1d1d1"
   inkscape:zoom="2.4261603"
   inkscape:cx="118.29391"
   inkscape:cy="118.5"
   inkscape:window-width="1392"
   inkscape:window-height="1212"
   inkscape:window-x="457"
   inkscape:window-y="58"
   inkscape:window-maximized="0"
   inkscape:current-layer="Layer_1" />

<path
   fill="#fefefe"
   opacity="1"
   stroke="none"
   d="m 198.26116,130.16825 c 4.81276,14.67395 7.80843,28.94338 3.78249,43.63946 -4.50276,16.4369 -13.45583,30.20569 -28.26805,39.51461 -12.74608,8.01041 -25.68374,15.84079 -41.17717,18.41677 -16.27743,2.70636 -32.08524,2.5973 -47.107086,-5.01456 C 60.868688,214.24779 43.715906,195.4931 34.198425,169.98155 27.682257,152.51497 31.178244,136.11334 40.892451,121.48761 49.296387,108.83468 59.825541,97.38572 70.314569,86.201313 85.734444,69.759117 98.291475,51.891119 102.97853,29.825944 c 1.84443,-8.68301 1.97596,-17.709755 3.08515,-28.5032101 7.67439,6.0206309 15.6554,10.8962771 21.81619,17.4006741 13.21829,13.955514 22.51485,30.344118 25.94684,49.220305 3.04214,16.731829 -1.65133,32.137777 -10.91996,46.245317 -5.60184,8.52638 -12.11351,16.51165 -17.36613,25.22429 -4.96103,8.22898 -2.62583,14.65928 6.40302,21.70714 4.59554,3.58725 15.67501,2.40082 20.92465,-2.22481 9.86183,-8.68957 14.56049,-20.39519 19.54502,-31.88621 3.28681,-7.57722 6.15064,-15.32779 9.66062,-24.1486 9.16837,7.42255 11.16839,17.88625 16.18723,27.30741 z"
   id="path2"
   style="stroke-width:1.61784" />
</svg>
